<svg width="61" height="60" viewBox="0 0 61 60" fill="none" xmlns="http://www.w3.org/2000/svg">
<g id="Feature Icon Container" clip-path="url(#clip0_245_1052)">
<g id="Secondary Feature Icon Container">
<path id="Vector" d="M48 42.5H18C13.75 42.5 10.5 39.25 10.5 35V17.5C10.5 13.25 13.75 10 18 10H48C52.25 10 55.5 13.25 55.5 17.5V35C55.5 39.25 52.25 42.5 48 42.5Z" fill="#FF8361"/>
</g>
<path id="Vector_2" d="M48 37.5H38C36.5 37.5 35.5 36.5 35.5 35C35.5 33.5 36.5 32.5 38 32.5H48C49.5 32.5 50.5 33.5 50.5 35C50.5 36.5 49.5 37.5 48 37.5Z" fill="#565564"/>
<path id="Vector_3" d="M55.5 17.5H10.5V22.5H55.5V17.5Z" fill="#565564"/>
<path id="Vector_4" d="M18 54.5L17.25 54.25C10.25 52.25 5.5 45.75 5.5 38.5V30.25L18 25.25L30.5 30.25V38.5C30.5 45.75 25.75 52.25 18.75 54.25L18 54.5ZM10.5 33.75V38.75C10.5 43.5 13.5 47.75 18 49.5C22.5 47.75 25.5 43.5 25.5 38.75V33.75L18 30.75L10.5 33.75Z" fill="#565564"/>
</g>
<defs>
<clipPath id="clip0_245_1052">
<rect width="60" height="60" fill="white" transform="translate(0.5)"/>
</clipPath>
</defs>
</svg>
