<svg width="1810" height="1745" viewBox="0 0 1810 1745" fill="none" xmlns="http://www.w3.org/2000/svg">
<g clip-path="url(#clip0_6466_121)">
<path fill-rule="evenodd" clip-rule="evenodd" d="M0.837585 0.963196C-0.333984 2.13477 -0.333984 4.02039 -0.333984 7.7916V759.458V1139.29V1516.95C-0.333984 1517.81 0.667572 1518.27 1.31638 1517.71L443.192 1139.41C443.262 1139.35 443.296 1139.32 443.338 1139.31C443.38 1139.29 443.426 1139.29 443.518 1139.29L1766.33 1139.29C1770.1 1139.29 1771.99 1139.29 1773.16 1138.12C1774.33 1136.95 1774.33 1135.06 1774.33 1131.29V7.79163C1774.33 4.02039 1774.33 2.13477 1773.16 0.963196C1771.99 -0.208374 1770.1 -0.208374 1766.33 -0.208374H7.66602C3.89478 -0.208374 2.00916 -0.208374 0.837585 0.963196ZM408.791 427.104C408.791 377.399 449.085 337.104 498.791 337.104H1275.21C1324.91 337.104 1365.21 377.399 1365.21 427.104C1365.21 476.81 1324.91 517.104 1275.21 517.104H498.791C449.085 517.104 408.791 476.81 408.791 427.104ZM498.791 621.979C449.085 621.979 408.791 662.273 408.791 711.979C408.791 761.685 449.085 801.979 498.791 801.979L1053.37 801.979C1103.08 801.979 1143.37 761.685 1143.37 711.979C1143.37 662.273 1103.08 621.979 1053.37 621.979L498.791 621.979Z" fill="#C1D0EA"/>
</g>
<defs>
<clipPath id="clip0_6466_121">
<rect width="1810" height="1745" fill="white"/>
</clipPath>
</defs>
</svg>
