<svg width="1810" height="1745" viewBox="0 0 1810 1745" fill="none" xmlns="http://www.w3.org/2000/svg">
<g clip-path="url(#clip0_6464_53)">
<path fillRule="evenodd" clipRule="evenodd" d="M-0.11203 397.042H1726.11C1724.78 226.582 1715.48 133.206 1650.47 71.8674C1574.61 0.291626 1452.52 0.291626 1208.33 0.291626H517.666C273.478 0.291626 151.385 0.291626 75.5254 71.8674C10.516 133.206 1.21786 226.582 -0.11203 397.042ZM1726.33 581.042H-0.333984V733.417C-0.333984 963.816 -0.333984 1079.02 75.5254 1150.59C151.385 1222.17 273.478 1222.17 517.666 1222.17H1208.33C1452.52 1222.17 1574.61 1222.17 1650.47 1150.59C1726.33 1079.02 1726.33 963.816 1726.33 733.417V581.042ZM431.333 804.333C380.522 804.333 339.333 845.523 339.333 896.333C339.333 947.144 380.522 988.333 431.333 988.333H432.196C483.006 988.333 524.196 947.144 524.196 896.333C524.196 845.523 483.006 804.333 432.196 804.333H431.333Z" fill="#C1D0EA"/>
<path d="M1415.91 401.732L1809.7 623.213C1810.01 623.39 1810.21 623.724 1810.21 624.085V1368.4C1810.21 1370.06 1809.52 1371.64 1808.31 1372.78L1412.18 1744.11C1411.8 1744.47 1411.2 1744.47 1410.82 1744.11L1014.69 1372.78C1013.48 1371.64 1012.79 1370.06 1012.79 1368.4V624.085C1012.79 623.724 1012.99 623.39 1013.3 623.213L1407.09 401.731C1409.83 400.191 1413.17 400.191 1415.91 401.732Z" fill="#DBDBDB"/>
<path d="M1269.1 1109.38L1382.9 1258.72C1382.96 1258.8 1383.08 1258.8 1383.14 1258.72L1610.85 959.875" stroke="#F2F2F7" strokeWidth="64"/>
</g>
<defs>
<clipPath id="clip0_6464_53">
<rect width="1810" height="1745" fill="white"/>
</clipPath>
</defs>
</svg>
