<svg width="1810" height="1745" viewBox="0 0 1810 1745" fill="none" xmlns="http://www.w3.org/2000/svg">
<path d="M1273.92 225.229C1274.74 206.959 1298.37 200.285 1308.63 215.424L1596.86 640.786C1597.88 642.284 1599.1 643.628 1600.5 644.78L1709.23 734.545C1722.97 745.886 1714.95 768.197 1697.14 768.197H1269.37C1258.55 768.197 1249.91 759.161 1250.39 748.343L1273.92 225.229Z" fill="#C1D0EA"/>
<path fill-rule="evenodd" clip-rule="evenodd" d="M889.387 24.5961C597.15 48.6191 370 243.048 370 760.231C370 1315.1 929.9 1398.8 940.949 1396.94C942.738 1398.12 1157.91 1382.31 1332.75 1229.22C1332.14 1229.13 1331.52 1229.03 1330.9 1228.94C1298.24 1223.93 1254.08 1216.67 1208.51 1207.74C1163.3 1198.87 1115.09 1188.05 1074.99 1175.7C1055.03 1169.56 1035.39 1162.53 1018.54 1154.48C1003.52 1147.3 982.615 1135.6 969.403 1117.39C953.037 1094.83 944.803 1062.54 939.665 1035.83C934.02 1006.49 930.396 973.391 928.025 942.955C927.281 933.4 926.654 924.018 926.125 914.988C777.423 897.714 662 771.336 662 618C662 477.546 758.844 359.712 889.4 327.628L889.387 24.5961ZM1043.98 905.335C1044.57 916.313 1045.3 927.933 1046.22 939.795C1048.48 968.734 1051.79 998.198 1056.55 1022.95C1058.93 1035.32 1061.53 1045.76 1064.25 1053.95C1065.6 1058 1066.85 1061.14 1067.93 1063.46C1068.03 1063.68 1068.13 1063.89 1068.23 1064.09C1069.42 1064.78 1071.21 1065.75 1073.76 1066.97C1082.37 1071.08 1095.05 1075.86 1111.79 1081.01C1145.1 1091.27 1187.82 1101 1231.24 1109.51C1274.3 1117.96 1316.45 1124.89 1347.94 1129.72C1363.66 1132.13 1376.64 1134.01 1385.65 1135.27C1390.16 1135.91 1393.67 1136.39 1396.03 1136.71C1397.21 1136.87 1398.1 1136.99 1398.68 1137.07L1399.33 1137.15L1399.47 1137.17L1399.5 1137.18L1399.5 1137.18C1405.06 1137.9 1410.35 1139.26 1415.27 1141.15C1479.53 1057.15 1529.52 945.948 1547 798.884C1547 270.107 1301.81 43.6136 999.395 23.484L999.408 321.444C1146.4 340.293 1260 465.881 1260 618C1260 754.341 1168.75 869.368 1043.98 905.335ZM799.976 618C799.976 706.931 872.069 779.025 961 779.025C1049.93 779.025 1122.02 706.931 1122.02 618C1122.02 529.069 1049.93 456.976 961 456.976C872.069 456.976 799.976 529.069 799.976 618Z" fill="#C1D0EA"/>
</svg>
