<svg width="1810" height="1745" viewBox="0 0 1810 1745" fill="none" xmlns="http://www.w3.org/2000/svg">
<g clip-path="url(#clip0_6466_104)">
<path fillRule="evenodd" clipRule="evenodd" d="M0.232626 396.75H1809.42C1808.02 226.29 1798.28 132.914 1730.15 71.5758C1650.64 0 1522.68 0 1266.76 0H542.895C286.972 0 159.01 0 79.5052 71.5758C11.3715 132.914 1.62644 226.29 0.232626 396.75ZM1809.65 580.75H0V733.125C0 963.524 0 1078.72 79.5052 1150.3C159.01 1221.88 286.972 1221.88 542.894 1221.88H542.895H1266.76H1266.76C1522.68 1221.88 1650.64 1221.88 1730.15 1150.3C1809.65 1078.72 1809.65 963.524 1809.65 733.125V580.75ZM452.413 804.042C401.602 804.042 360.413 845.232 360.413 896.042C360.413 946.852 401.602 988.042 452.413 988.042H453.318C504.128 988.042 545.318 946.852 545.318 896.042C545.318 845.232 504.128 804.042 453.318 804.042H452.413Z" fill="#C1D0EA"/>
<path d="M941.667 543.708L1186.33 810.875L941.667 1078.04" stroke="#DBDBDB" strokeWidth="180"/>
<path d="M921.52 219.991C792.515 238.864 680.476 282.699 606.276 343.329C532.076 403.959 500.777 477.249 518.21 549.544C535.642 621.839 600.617 688.209 701.03 736.287C801.443 784.366 930.444 810.875 1064 810.875" stroke="#DBDBDB" strokeWidth="180" strokeLinecap="round"/>
<path d="M1540.75 660.594C1576.89 626.411 1600.35 588.677 1609.79 549.544C1619.23 510.411 1614.45 470.647 1595.74 432.521C1577.03 394.396 1544.75 358.656 1500.74 327.342C1456.73 296.028 1401.86 269.753 1339.25 250.018" stroke="#DBDBDB" strokeWidth="180" strokeLinecap="round"/>
</g>
<defs>
<clipPath id="clip0_6466_104">
<rect width="1810" height="1222" fill="white"/>
</clipPath>
</defs>
</svg>
